<svg id="svg" version="1.1" xmlns="http://www.w3.org/2000/svg" xmlns:xlink="http://www.w3.org/1999/xlink" width="400" height="400" viewBox="0, 0, 400,400"><g id="svgg"><path id="path0" d="M214.688 241.506 C 207.917 255.088,202.382 266.425,202.388 266.699 C 202.395 266.974,207.934 278.269,214.698 291.799 L 226.997 316.400 258.398 316.381 L 289.800 316.361 302.169 291.521 L 314.537 266.680 302.069 241.740 L 289.601 216.800 258.300 216.806 L 227.000 216.812 214.688 241.506 " stroke="none" fill="#cbd5e1" fill-rule="evenodd"></path><path id="path1" d="M97.941 174.998 L 85.445 200.000 97.941 225.002 L 110.436 250.005 141.705 249.902 L 172.974 249.800 185.283 225.200 C 192.053 211.670,197.592 200.330,197.592 200.000 C 197.592 199.670,192.053 188.330,185.283 174.800 L 172.974 150.200 141.705 150.098 L 110.436 149.995 97.941 174.998 " stroke="none" fill="#93c5fd" fill-rule="evenodd"></path><path id="path2" d="M236.800 83.521 L 227.000 83.641 225.576 86.521 C 224.792 88.104,219.257 99.151,213.276 111.068 C 207.294 122.985,202.392 132.975,202.381 133.268 C 202.371 133.561,207.906 144.914,214.681 158.498 L 227.000 183.196 258.400 183.173 L 289.800 183.149 301.968 158.674 C 308.660 145.213,314.214 133.963,314.310 133.674 C 314.406 133.384,308.930 122.018,302.142 108.415 L 289.800 83.683 288.248 83.428 C 286.807 83.192,259.515 83.241,236.800 83.521 " stroke="none" fill="#f39b0b" fill-rule="evenodd"></path><path id="path3" d="M231.723 83.499 C 234.541 83.568,239.041 83.568,241.723 83.499 C 244.405 83.430,242.100 83.373,236.600 83.373 C 231.100 83.374,228.905 83.430,231.723 83.499 M224.421 88.021 C 223.718 89.372,223.207 90.540,223.285 90.618 C 223.363 90.696,224.016 89.669,224.737 88.337 C 225.458 87.004,225.969 85.836,225.873 85.740 C 225.777 85.644,225.124 86.671,224.421 88.021 M218.400 100.000 C 215.978 104.840,214.087 108.800,214.197 108.800 C 214.307 108.800,216.378 104.840,218.800 100.000 C 221.222 95.160,223.113 91.200,223.003 91.200 C 222.893 91.200,220.822 95.160,218.400 100.000 M212.881 111.009 C 212.402 111.994,212.094 112.800,212.197 112.800 C 212.468 112.800,214.084 109.551,213.903 109.370 C 213.819 109.286,213.359 110.024,212.881 111.009 M208.886 119.018 C 207.301 122.198,206.092 124.800,206.199 124.800 C 206.464 124.800,212.085 113.552,211.909 113.375 C 211.832 113.299,210.472 115.838,208.886 119.018 M204.881 127.009 C 204.402 127.994,204.094 128.800,204.197 128.800 C 204.468 128.800,206.084 125.551,205.903 125.370 C 205.819 125.286,205.359 126.024,204.881 127.009 M202.875 131.019 C 201.849 133.133,201.788 133.964,202.583 135.024 C 203.109 135.725,203.124 135.662,202.738 134.372 C 202.374 133.158,202.441 132.688,203.183 131.233 C 203.663 130.292,203.987 129.454,203.903 129.370 C 203.819 129.286,203.357 130.028,202.875 131.019 M314.160 133.420 C 314.160 134.235,314.287 134.589,314.474 134.294 C 314.883 133.650,314.887 132.501,314.480 132.249 C 314.304 132.141,314.160 132.667,314.160 133.420 M312.780 136.839 C 312.320 137.740,312.013 138.546,312.097 138.630 C 312.181 138.714,312.641 137.976,313.119 136.991 C 314.209 134.747,313.915 134.615,312.780 136.839 M203.200 136.149 C 203.200 136.581,204.789 139.600,205.016 139.600 C 205.126 139.600,204.830 138.835,204.359 137.900 C 203.432 136.061,203.200 135.711,203.200 136.149 M310.780 140.839 C 310.320 141.740,310.013 142.546,310.097 142.630 C 310.181 142.714,310.641 141.976,311.119 140.991 C 312.209 138.747,311.915 138.615,310.780 140.839 M205.200 140.149 C 205.200 140.581,206.789 143.600,207.016 143.600 C 207.126 143.600,206.830 142.835,206.359 141.900 C 205.432 140.061,205.200 139.711,205.200 140.149 M308.780 144.839 C 308.320 145.740,308.013 146.546,308.097 146.630 C 308.181 146.714,308.641 145.976,309.119 144.991 C 310.209 142.747,309.915 142.615,308.780 144.839 M207.201 144.116 C 207.199 144.547,208.772 147.600,208.996 147.600 C 209.094 147.600,209.057 147.285,208.913 146.900 C 208.545 145.916,207.203 143.734,207.201 144.116 M306.780 148.839 C 306.320 149.740,306.013 150.546,306.097 150.630 C 306.181 150.714,306.641 149.976,307.119 148.991 C 308.209 146.747,307.915 146.615,306.780 148.839 M209.200 148.149 C 209.200 148.581,210.789 151.600,211.016 151.600 C 211.126 151.600,210.830 150.835,210.359 149.900 C 209.432 148.061,209.200 147.711,209.200 148.149 M304.780 152.839 C 304.320 153.740,304.013 154.546,304.097 154.630 C 304.181 154.714,304.641 153.976,305.119 152.991 C 306.209 150.747,305.915 150.615,304.780 152.839 M174.000 152.188 C 174.000 152.530,175.677 155.600,175.864 155.600 C 175.965 155.600,175.977 155.465,175.891 155.300 C 175.805 155.135,175.426 154.325,175.048 153.500 C 174.444 152.178,174.000 151.622,174.000 152.188 M211.200 152.149 C 211.200 152.581,212.789 155.600,213.016 155.600 C 213.126 155.600,212.830 154.835,212.359 153.900 C 211.432 152.061,211.200 151.711,211.200 152.149 M108.008 153.984 C 107.564 154.855,107.201 155.710,107.201 155.884 C 107.203 156.266,108.545 154.084,108.913 153.100 C 109.390 151.826,108.830 152.373,108.008 153.984 M302.780 156.839 C 302.320 157.740,302.013 158.546,302.097 158.630 C 302.181 158.714,302.641 157.976,303.119 156.991 C 304.209 154.747,303.915 154.615,302.780 156.839 M176.000 156.188 C 176.000 156.530,177.677 159.600,177.864 159.600 C 177.965 159.600,177.977 159.465,177.891 159.300 C 177.805 159.135,177.426 158.325,177.048 157.500 C 176.444 156.178,176.000 155.622,176.000 156.188 M213.200 156.149 C 213.200 156.581,214.789 159.600,215.016 159.600 C 215.126 159.600,214.830 158.835,214.359 157.900 C 213.432 156.061,213.200 155.711,213.200 156.149 M106.008 157.984 C 105.564 158.855,105.201 159.710,105.201 159.884 C 105.203 160.266,106.545 158.084,106.913 157.100 C 107.390 155.826,106.830 156.373,106.008 157.984 M300.780 160.839 C 300.320 161.740,300.013 162.546,300.097 162.630 C 300.181 162.714,300.641 161.976,301.119 160.991 C 302.209 158.747,301.915 158.615,300.780 160.839 M178.000 160.188 C 178.000 160.530,179.677 163.600,179.864 163.600 C 179.965 163.600,179.977 163.465,179.891 163.300 C 179.805 163.135,179.426 162.325,179.048 161.500 C 178.444 160.178,178.000 159.622,178.000 160.188 M215.200 160.149 C 215.200 160.581,216.789 163.600,217.016 163.600 C 217.126 163.600,216.830 162.835,216.359 161.900 C 215.432 160.061,215.200 159.711,215.200 160.149 M104.008 161.984 C 103.564 162.855,103.201 163.710,103.201 163.884 C 103.203 164.266,104.545 162.084,104.913 161.100 C 105.390 159.826,104.830 160.373,104.008 161.984 M298.780 164.839 C 298.320 165.740,298.013 166.546,298.097 166.630 C 298.181 166.714,298.641 165.976,299.119 164.991 C 300.209 162.747,299.915 162.615,298.780 164.839 M180.000 164.188 C 180.000 164.530,181.677 167.600,181.864 167.600 C 181.965 167.600,181.977 167.465,181.891 167.300 C 181.805 167.135,181.426 166.325,181.048 165.500 C 180.444 164.178,180.000 163.622,180.000 164.188 M217.200 164.149 C 217.200 164.581,218.789 167.600,219.016 167.600 C 219.126 167.600,218.830 166.835,218.359 165.900 C 217.432 164.061,217.200 163.711,217.200 164.149 M102.008 165.984 C 101.564 166.855,101.201 167.710,101.201 167.884 C 101.203 168.266,102.545 166.084,102.913 165.100 C 103.390 163.826,102.830 164.373,102.008 165.984 M296.780 168.839 C 296.320 169.740,296.013 170.546,296.097 170.630 C 296.181 170.714,296.641 169.976,297.119 168.991 C 298.209 166.747,297.915 166.615,296.780 168.839 M182.000 168.188 C 182.000 168.530,183.677 171.600,183.864 171.600 C 183.965 171.600,183.977 171.465,183.891 171.300 C 183.805 171.135,183.426 170.325,183.048 169.500 C 182.444 168.178,182.000 167.622,182.000 168.188 M219.200 168.149 C 219.200 168.581,220.789 171.600,221.016 171.600 C 221.126 171.600,220.830 170.835,220.359 169.900 C 219.432 168.061,219.200 167.711,219.200 168.149 M100.008 169.984 C 99.564 170.855,99.201 171.710,99.201 171.884 C 99.203 172.266,100.545 170.084,100.913 169.100 C 101.390 167.826,100.830 168.373,100.008 169.984 M294.780 172.839 C 294.320 173.740,294.013 174.546,294.097 174.630 C 294.181 174.714,294.641 173.976,295.119 172.991 C 296.209 170.747,295.915 170.615,294.780 172.839 M184.000 172.188 C 184.000 172.530,185.677 175.600,185.864 175.600 C 185.965 175.600,185.977 175.465,185.891 175.300 C 185.805 175.135,185.426 174.325,185.048 173.500 C 184.444 172.178,184.000 171.622,184.000 172.188 M221.200 172.149 C 221.200 172.581,222.789 175.600,223.016 175.600 C 223.126 175.600,222.830 174.835,222.359 173.900 C 221.432 172.061,221.200 171.711,221.200 172.149 M98.008 173.984 C 97.564 174.855,97.201 175.710,97.201 175.884 C 97.203 176.266,98.545 174.084,98.913 173.100 C 99.390 171.826,98.830 172.373,98.008 173.984 M292.780 176.839 C 292.320 177.740,292.013 178.546,292.097 178.630 C 292.181 178.714,292.641 177.976,293.119 176.991 C 294.209 174.747,293.915 174.615,292.780 176.839 M186.000 176.188 C 186.000 176.530,187.677 179.600,187.864 179.600 C 187.965 179.600,187.977 179.465,187.891 179.300 C 187.805 179.135,187.426 178.325,187.048 177.500 C 186.444 176.178,186.000 175.622,186.000 176.188 M223.201 176.116 C 223.199 176.547,224.772 179.600,224.996 179.600 C 225.094 179.600,225.057 179.285,224.913 178.900 C 224.545 177.916,223.203 175.734,223.201 176.116 M96.008 177.984 C 95.564 178.855,95.201 179.710,95.201 179.884 C 95.203 180.266,96.545 178.084,96.913 177.100 C 97.390 175.826,96.830 176.373,96.008 177.984 M290.780 180.839 C 290.320 181.740,290.013 182.546,290.097 182.630 C 290.181 182.714,290.641 181.976,291.119 180.991 C 292.209 178.747,291.915 178.615,290.780 180.839 M188.000 180.188 C 188.000 180.530,189.677 183.600,189.864 183.600 C 189.965 183.600,189.977 183.465,189.891 183.300 C 189.805 183.135,189.426 182.325,189.048 181.500 C 188.444 180.178,188.000 179.622,188.000 180.188 M225.201 180.116 C 225.201 180.290,225.564 181.145,226.008 182.016 L 226.816 183.600 258.508 183.502 L 290.200 183.405 258.500 183.300 C 238.363 183.233,226.800 183.054,226.800 182.807 C 226.800 182.594,226.441 181.830,226.001 181.110 C 225.562 180.389,225.202 179.942,225.201 180.116 M94.008 181.984 C 93.564 182.855,93.201 183.710,93.201 183.884 C 93.203 184.266,94.545 182.084,94.913 181.100 C 95.390 179.826,94.830 180.373,94.008 181.984 M190.000 184.188 C 190.000 184.530,191.677 187.600,191.864 187.600 C 191.965 187.600,191.977 187.465,191.891 187.300 C 191.805 187.135,191.426 186.325,191.048 185.500 C 190.444 184.178,190.000 183.622,190.000 184.188 M92.008 185.984 C 91.564 186.855,91.201 187.710,91.201 187.884 C 91.203 188.266,92.545 186.084,92.913 185.100 C 93.390 183.826,92.830 184.373,92.008 185.984 M192.000 188.188 C 192.000 188.530,193.677 191.600,193.864 191.600 C 193.965 191.600,193.977 191.465,193.891 191.300 C 193.805 191.135,193.426 190.325,193.048 189.500 C 192.444 188.178,192.000 187.622,192.000 188.188 M90.008 189.984 C 89.564 190.855,89.201 191.710,89.201 191.884 C 89.203 192.266,90.545 190.084,90.913 189.100 C 91.390 187.826,90.830 188.373,90.008 189.984 M194.000 192.188 C 194.000 192.530,195.677 195.600,195.864 195.600 C 195.965 195.600,195.977 195.465,195.891 195.300 C 195.805 195.135,195.426 194.325,195.048 193.500 C 194.444 192.178,194.000 191.622,194.000 192.188 M88.008 193.984 C 87.564 194.855,87.201 195.710,87.201 195.884 C 87.203 196.266,88.545 194.084,88.913 193.100 C 89.390 191.826,88.830 192.373,88.008 193.984 M196.000 196.201 C 196.000 196.312,196.360 197.075,196.800 197.896 C 197.801 199.764,197.799 200.241,196.776 202.149 C 196.323 202.994,196.041 203.774,196.148 203.882 C 196.370 204.103,198.000 200.685,198.000 200.000 C 198.000 199.438,196.445 196.000,196.190 196.000 C 196.086 196.000,196.000 196.091,196.000 196.201 M85.925 198.180 C 85.044 199.992,85.544 202.624,86.931 203.481 C 87.147 203.614,87.241 203.561,87.141 203.362 C 87.040 203.163,86.611 202.325,86.188 201.500 C 85.428 200.020,85.428 199.980,86.188 198.500 C 87.284 196.364,87.270 196.400,87.018 196.400 C 86.893 196.400,86.400 197.201,85.925 198.180 M87.201 204.116 C 87.199 204.547,88.772 207.600,88.996 207.600 C 89.094 207.600,89.057 207.285,88.913 206.900 C 88.545 205.916,87.203 203.734,87.201 204.116 M194.822 206.048 C 194.349 206.954,194.046 207.779,194.147 207.881 C 194.249 207.982,194.647 207.375,195.033 206.532 C 195.419 205.690,195.805 204.865,195.891 204.700 C 195.977 204.535,195.965 204.400,195.864 204.400 C 195.763 204.400,195.294 205.142,194.822 206.048 M89.201 208.116 C 89.199 208.547,90.772 211.600,90.996 211.600 C 91.094 211.600,91.057 211.285,90.913 210.900 C 90.545 209.916,89.203 207.734,89.201 208.116 M192.822 210.048 C 192.349 210.954,192.046 211.779,192.147 211.881 C 192.249 211.982,192.647 211.375,193.033 210.532 C 193.419 209.690,193.805 208.865,193.891 208.700 C 193.977 208.535,193.965 208.400,193.864 208.400 C 193.763 208.400,193.294 209.142,192.822 210.048 M91.201 212.116 C 91.199 212.547,92.772 215.600,92.996 215.600 C 93.094 215.600,93.057 215.285,92.913 214.900 C 92.545 213.916,91.203 211.734,91.201 212.116 M190.822 214.048 C 190.349 214.954,190.046 215.779,190.147 215.881 C 190.249 215.982,190.647 215.375,191.033 214.532 C 191.419 213.690,191.805 212.865,191.891 212.700 C 191.977 212.535,191.965 212.400,191.864 212.400 C 191.763 212.400,191.294 213.142,190.822 214.048 M93.201 216.116 C 93.199 216.547,94.772 219.600,94.996 219.600 C 95.094 219.600,95.057 219.285,94.913 218.900 C 94.545 217.916,93.203 215.734,93.201 216.116 M188.822 218.048 C 188.349 218.954,188.046 219.779,188.147 219.881 C 188.249 219.982,188.647 219.375,189.033 218.532 C 189.419 217.690,189.805 216.865,189.891 216.700 C 189.977 216.535,189.965 216.400,189.864 216.400 C 189.763 216.400,189.294 217.142,188.822 218.048 M226.131 217.700 C 225.719 218.415,220.028 229.729,213.483 242.843 L 201.583 266.686 214.092 291.739 L 226.600 316.793 258.369 316.696 L 290.139 316.600 302.456 292.000 C 309.230 278.470,314.779 267.100,314.787 266.734 C 314.794 266.368,309.210 254.893,302.379 241.234 L 289.957 216.400 258.418 216.400 L 226.879 216.400 226.131 217.700 M302.069 241.740 L 314.537 266.680 302.169 291.521 L 289.800 316.361 258.398 316.381 L 226.997 316.400 214.698 291.799 C 207.934 278.269,202.395 266.974,202.388 266.699 C 202.382 266.425,207.917 255.088,214.688 241.506 L 227.000 216.812 258.300 216.806 L 289.601 216.800 302.069 241.740 M95.201 220.116 C 95.199 220.547,96.772 223.600,96.996 223.600 C 97.094 223.600,97.057 223.285,96.913 222.900 C 96.545 221.916,95.203 219.734,95.201 220.116 M186.822 222.048 C 186.349 222.954,186.046 223.779,186.147 223.881 C 186.249 223.982,186.647 223.375,187.033 222.532 C 187.419 221.690,187.805 220.865,187.891 220.700 C 187.977 220.535,187.965 220.400,187.864 220.400 C 187.763 220.400,187.294 221.142,186.822 222.048 M97.201 224.116 C 97.199 224.547,98.772 227.600,98.996 227.600 C 99.094 227.600,99.057 227.285,98.913 226.900 C 98.545 225.916,97.203 223.734,97.201 224.116 M184.822 226.048 C 184.349 226.954,184.046 227.779,184.147 227.881 C 184.249 227.982,184.647 227.375,185.033 226.532 C 185.419 225.690,185.805 224.865,185.891 224.700 C 185.977 224.535,185.965 224.400,185.864 224.400 C 185.763 224.400,185.294 225.142,184.822 226.048 M99.201 228.116 C 99.199 228.547,100.772 231.600,100.996 231.600 C 101.094 231.600,101.057 231.285,100.913 230.900 C 100.545 229.916,99.203 227.734,99.201 228.116 M182.822 230.048 C 182.349 230.954,182.046 231.779,182.147 231.881 C 182.249 231.982,182.647 231.375,183.033 230.532 C 183.419 229.690,183.805 228.865,183.891 228.700 C 183.977 228.535,183.965 228.400,183.864 228.400 C 183.763 228.400,183.294 229.142,182.822 230.048 M101.201 232.116 C 101.199 232.547,102.772 235.600,102.996 235.600 C 103.094 235.600,103.057 235.285,102.913 234.900 C 102.545 233.916,101.203 231.734,101.201 232.116 M180.822 234.048 C 180.349 234.954,180.046 235.779,180.147 235.881 C 180.249 235.982,180.647 235.375,181.033 234.532 C 181.419 233.690,181.805 232.865,181.891 232.700 C 181.977 232.535,181.965 232.400,181.864 232.400 C 181.763 232.400,181.294 233.142,180.822 234.048 M103.201 236.116 C 103.199 236.547,104.772 239.600,104.996 239.600 C 105.094 239.600,105.057 239.285,104.913 238.900 C 104.545 237.916,103.203 235.734,103.201 236.116 M178.822 238.048 C 178.349 238.954,178.046 239.779,178.147 239.881 C 178.249 239.982,178.647 239.375,179.033 238.532 C 179.419 237.690,179.805 236.865,179.891 236.700 C 179.977 236.535,179.965 236.400,179.864 236.400 C 179.763 236.400,179.294 237.142,178.822 238.048 M105.201 240.116 C 105.199 240.547,106.772 243.600,106.996 243.600 C 107.094 243.600,107.057 243.285,106.913 242.900 C 106.545 241.916,105.203 239.734,105.201 240.116 M176.822 242.048 C 176.349 242.954,176.046 243.779,176.147 243.881 C 176.249 243.982,176.647 243.375,177.033 242.532 C 177.419 241.690,177.805 240.865,177.891 240.700 C 177.977 240.535,177.965 240.400,177.864 240.400 C 177.763 240.400,177.294 241.142,176.822 242.048 M107.201 244.116 C 107.199 244.547,108.772 247.600,108.996 247.600 C 109.094 247.600,109.057 247.285,108.913 246.900 C 108.545 245.916,107.203 243.734,107.201 244.116 M174.822 246.048 C 174.349 246.954,174.046 247.779,174.147 247.881 C 174.249 247.982,174.647 247.375,175.033 246.532 C 175.419 245.690,175.805 244.865,175.891 244.700 C 175.977 244.535,175.965 244.400,175.864 244.400 C 175.763 244.400,175.294 245.142,174.822 246.048 " stroke="none" fill="#34343c" fill-rule="evenodd"></path><path id="path4" d="M211.600 50.000 C 211.600 50.220,211.150 50.400,210.600 50.400 C 210.050 50.400,209.600 50.560,209.600 50.757 C 209.600 50.953,209.134 51.230,208.564 51.373 C 207.219 51.711,201.711 57.219,201.373 58.564 C 201.230 59.134,200.953 59.600,200.757 59.600 C 200.560 59.600,200.400 59.960,200.400 60.400 C 200.400 60.840,200.234 61.200,200.032 61.200 C 199.829 61.200,199.545 61.740,199.400 62.400 C 199.255 63.060,198.971 63.600,198.768 63.600 C 198.566 63.600,198.400 63.960,198.400 64.400 C 198.400 64.840,198.234 65.200,198.032 65.200 C 197.829 65.200,197.545 65.740,197.400 66.400 C 197.255 67.060,196.971 67.600,196.768 67.600 C 196.566 67.600,196.400 67.960,196.400 68.400 C 196.400 68.840,196.234 69.200,196.032 69.200 C 195.829 69.200,195.545 69.740,195.400 70.400 C 195.255 71.060,194.971 71.600,194.768 71.600 C 194.566 71.600,194.400 71.960,194.400 72.400 C 194.400 72.840,194.234 73.200,194.032 73.200 C 193.829 73.200,193.545 73.740,193.400 74.400 C 193.255 75.060,192.971 75.600,192.768 75.600 C 192.566 75.600,192.400 75.960,192.400 76.400 C 192.400 76.840,192.234 77.200,192.032 77.200 C 191.829 77.200,191.545 77.740,191.400 78.400 C 191.255 79.060,190.971 79.600,190.768 79.600 C 190.566 79.600,190.400 79.960,190.400 80.400 C 190.400 80.840,190.234 81.200,190.032 81.200 C 189.829 81.200,189.545 81.740,189.400 82.400 C 189.255 83.060,188.971 83.600,188.768 83.600 C 188.566 83.600,188.400 83.960,188.400 84.400 C 188.400 84.840,188.234 85.200,188.032 85.200 C 187.829 85.200,187.545 85.740,187.400 86.400 C 187.255 87.060,186.971 87.600,186.768 87.600 C 186.566 87.600,186.400 87.960,186.400 88.400 C 186.400 88.840,186.234 89.200,186.032 89.200 C 185.829 89.200,185.545 89.740,185.400 90.400 C 185.255 91.060,184.971 91.600,184.768 91.600 C 184.566 91.600,184.400 91.960,184.400 92.400 C 184.400 92.840,184.234 93.200,184.032 93.200 C 183.829 93.200,183.545 93.740,183.400 94.400 C 183.255 95.060,182.971 95.600,182.768 95.600 C 182.566 95.600,182.400 95.960,182.400 96.400 C 182.400 96.840,182.234 97.200,182.032 97.200 C 181.829 97.200,181.545 97.740,181.400 98.400 C 181.255 99.060,180.971 99.600,180.768 99.600 C 180.566 99.600,180.400 99.960,180.400 100.400 C 180.400 100.840,180.234 101.200,180.032 101.200 C 179.829 101.200,179.545 101.740,179.400 102.400 C 179.255 103.060,178.971 103.600,178.768 103.600 C 178.566 103.600,178.400 103.960,178.400 104.400 C 178.400 104.840,178.234 105.200,178.032 105.200 C 177.829 105.200,177.545 105.740,177.400 106.400 C 177.255 107.060,176.971 107.600,176.768 107.600 C 176.566 107.600,176.400 107.960,176.400 108.400 C 176.400 108.840,176.234 109.200,176.032 109.200 C 175.829 109.200,175.545 109.740,175.400 110.400 C 175.255 111.060,174.971 111.600,174.768 111.600 C 174.566 111.600,174.400 111.960,174.400 112.400 C 174.400 112.840,174.240 113.200,174.043 113.200 C 173.847 113.200,173.568 113.672,173.424 114.248 C 172.851 116.530,175.257 116.400,133.629 116.400 C 111.558 116.400,95.200 116.551,95.200 116.755 C 95.200 116.950,94.390 117.231,93.400 117.379 C 92.410 117.528,91.600 117.818,91.600 118.025 C 91.600 118.231,91.411 118.400,91.181 118.400 C 90.505 118.400,85.200 123.867,85.200 124.564 C 85.200 124.914,85.020 125.200,84.800 125.200 C 84.580 125.200,84.400 125.470,84.400 125.800 C 84.400 126.130,84.228 126.400,84.018 126.400 C 83.808 126.400,83.518 127.030,83.374 127.800 C 83.229 128.570,82.951 129.200,82.755 129.200 C 82.560 129.200,82.400 129.470,82.400 129.800 C 82.400 130.130,82.228 130.400,82.018 130.400 C 81.808 130.400,81.518 131.030,81.374 131.800 C 81.229 132.570,80.951 133.200,80.755 133.200 C 80.560 133.200,80.400 133.470,80.400 133.800 C 80.400 134.130,80.228 134.400,80.018 134.400 C 79.808 134.400,79.518 135.030,79.374 135.800 C 79.229 136.570,78.951 137.200,78.755 137.200 C 78.560 137.200,78.400 137.470,78.400 137.800 C 78.400 138.130,78.228 138.400,78.018 138.400 C 77.808 138.400,77.518 139.030,77.374 139.800 C 77.229 140.570,76.951 141.200,76.755 141.200 C 76.560 141.200,76.400 141.470,76.400 141.800 C 76.400 142.130,76.228 142.400,76.018 142.400 C 75.808 142.400,75.518 143.030,75.374 143.800 C 75.229 144.570,74.951 145.200,74.755 145.200 C 74.560 145.200,74.400 145.470,74.400 145.800 C 74.400 146.130,74.228 146.400,74.018 146.400 C 73.808 146.400,73.518 147.030,73.374 147.800 C 73.229 148.570,72.951 149.200,72.755 149.200 C 72.560 149.200,72.400 149.470,72.400 149.800 C 72.400 150.130,72.228 150.400,72.018 150.400 C 71.808 150.400,71.518 151.030,71.374 151.800 C 71.229 152.570,70.951 153.200,70.755 153.200 C 70.560 153.200,70.400 153.470,70.400 153.800 C 70.400 154.130,70.228 154.400,70.018 154.400 C 69.808 154.400,69.518 155.030,69.374 155.800 C 69.229 156.570,68.951 157.200,68.755 157.200 C 68.560 157.200,68.400 157.470,68.400 157.800 C 68.400 158.130,68.228 158.400,68.018 158.400 C 67.808 158.400,67.518 159.030,67.374 159.800 C 67.229 160.570,66.951 161.200,66.755 161.200 C 66.560 161.200,66.400 161.470,66.400 161.800 C 66.400 162.130,66.228 162.400,66.018 162.400 C 65.808 162.400,65.518 163.030,65.374 163.800 C 65.229 164.570,64.951 165.200,64.755 165.200 C 64.560 165.200,64.400 165.470,64.400 165.800 C 64.400 166.130,64.228 166.400,64.018 166.400 C 63.808 166.400,63.518 167.030,63.374 167.800 C 63.229 168.570,62.951 169.200,62.755 169.200 C 62.560 169.200,62.400 169.470,62.400 169.800 C 62.400 170.130,62.228 170.400,62.018 170.400 C 61.808 170.400,61.518 171.030,61.374 171.800 C 61.229 172.570,60.951 173.200,60.755 173.200 C 60.560 173.200,60.400 173.470,60.400 173.800 C 60.400 174.130,60.228 174.400,60.018 174.400 C 59.808 174.400,59.518 175.030,59.374 175.800 C 59.229 176.570,58.951 177.200,58.755 177.200 C 58.560 177.200,58.400 177.470,58.400 177.800 C 58.400 178.130,58.228 178.400,58.018 178.400 C 57.808 178.400,57.518 179.030,57.374 179.800 C 57.229 180.570,56.951 181.200,56.755 181.200 C 56.560 181.200,56.400 181.470,56.400 181.800 C 56.400 182.130,56.228 182.400,56.018 182.400 C 55.808 182.400,55.518 183.030,55.374 183.800 C 55.229 184.570,54.951 185.200,54.755 185.200 C 54.560 185.200,54.400 185.470,54.400 185.800 C 54.400 186.130,54.228 186.400,54.018 186.400 C 53.808 186.400,53.518 187.030,53.374 187.800 C 53.229 188.570,52.951 189.200,52.755 189.200 C 52.560 189.200,52.400 189.470,52.400 189.800 C 52.400 190.130,52.222 190.400,52.005 190.400 C 51.787 190.400,51.494 191.120,51.354 192.000 C 51.213 192.880,50.941 193.600,50.749 193.600 C 50.557 193.600,50.400 194.050,50.400 194.600 C 50.400 195.150,50.220 195.600,50.000 195.600 C 49.758 195.600,49.600 197.333,49.600 200.000 C 49.600 202.667,49.758 204.400,50.000 204.400 C 50.220 204.400,50.400 204.850,50.400 205.400 C 50.400 205.950,50.557 206.400,50.749 206.400 C 50.941 206.400,51.213 207.120,51.354 208.000 C 51.494 208.880,51.787 209.600,52.005 209.600 C 52.222 209.600,52.400 209.870,52.400 210.200 C 52.400 210.530,52.560 210.800,52.755 210.800 C 52.951 210.800,53.229 211.430,53.374 212.200 C 53.518 212.970,53.808 213.600,54.018 213.600 C 54.228 213.600,54.400 213.870,54.400 214.200 C 54.400 214.530,54.560 214.800,54.755 214.800 C 54.951 214.800,55.229 215.430,55.374 216.200 C 55.518 216.970,55.808 217.600,56.018 217.600 C 56.228 217.600,56.400 217.870,56.400 218.200 C 56.400 218.530,56.560 218.800,56.755 218.800 C 56.951 218.800,57.229 219.430,57.374 220.200 C 57.518 220.970,57.808 221.600,58.018 221.600 C 58.228 221.600,58.400 221.870,58.400 222.200 C 58.400 222.530,58.560 222.800,58.755 222.800 C 58.951 222.800,59.229 223.430,59.374 224.200 C 59.518 224.970,59.808 225.600,60.018 225.600 C 60.228 225.600,60.400 225.870,60.400 226.200 C 60.400 226.530,60.560 226.800,60.755 226.800 C 60.951 226.800,61.229 227.430,61.374 228.200 C 61.518 228.970,61.808 229.600,62.018 229.600 C 62.228 229.600,62.400 229.870,62.400 230.200 C 62.400 230.530,62.560 230.800,62.755 230.800 C 62.951 230.800,63.229 231.430,63.374 232.200 C 63.518 232.970,63.808 233.600,64.018 233.600 C 64.228 233.600,64.400 233.870,64.400 234.200 C 64.400 234.530,64.560 234.800,64.755 234.800 C 64.951 234.800,65.229 235.430,65.374 236.200 C 65.518 236.970,65.808 237.600,66.018 237.600 C 66.228 237.600,66.400 237.870,66.400 238.200 C 66.400 238.530,66.560 238.800,66.755 238.800 C 66.951 238.800,67.229 239.430,67.374 240.200 C 67.518 240.970,67.808 241.600,68.018 241.600 C 68.228 241.600,68.400 241.870,68.400 242.200 C 68.400 242.530,68.560 242.800,68.755 242.800 C 68.951 242.800,69.229 243.430,69.374 244.200 C 69.518 244.970,69.808 245.600,70.018 245.600 C 70.228 245.600,70.400 245.870,70.400 246.200 C 70.400 246.530,70.560 246.800,70.755 246.800 C 70.951 246.800,71.229 247.430,71.374 248.200 C 71.518 248.970,71.808 249.600,72.018 249.600 C 72.228 249.600,72.400 249.870,72.400 250.200 C 72.400 250.530,72.560 250.800,72.755 250.800 C 72.951 250.800,73.229 251.430,73.374 252.200 C 73.518 252.970,73.808 253.600,74.018 253.600 C 74.228 253.600,74.400 253.870,74.400 254.200 C 74.400 254.530,74.560 254.800,74.755 254.800 C 74.951 254.800,75.229 255.430,75.374 256.200 C 75.518 256.970,75.808 257.600,76.018 257.600 C 76.228 257.600,76.400 257.870,76.400 258.200 C 76.400 258.530,76.560 258.800,76.755 258.800 C 76.951 258.800,77.229 259.430,77.374 260.200 C 77.518 260.970,77.808 261.600,78.018 261.600 C 78.228 261.600,78.400 261.870,78.400 262.200 C 78.400 262.530,78.560 262.800,78.755 262.800 C 78.951 262.800,79.229 263.430,79.374 264.200 C 79.518 264.970,79.808 265.600,80.018 265.600 C 80.228 265.600,80.400 265.870,80.400 266.200 C 80.400 266.530,80.560 266.800,80.755 266.800 C 80.951 266.800,81.229 267.430,81.374 268.200 C 81.518 268.970,81.808 269.600,82.018 269.600 C 82.228 269.600,82.400 269.870,82.400 270.200 C 82.400 270.530,82.560 270.800,82.755 270.800 C 82.951 270.800,83.229 271.430,83.374 272.200 C 83.518 272.970,83.808 273.600,84.018 273.600 C 84.228 273.600,84.400 273.870,84.400 274.200 C 84.400 274.530,84.580 274.800,84.800 274.800 C 85.020 274.800,85.200 275.086,85.200 275.436 C 85.200 276.133,90.505 281.600,91.181 281.600 C 91.411 281.600,91.600 281.769,91.600 281.975 C 91.600 282.182,92.410 282.472,93.400 282.621 C 94.390 282.769,95.200 283.050,95.200 283.245 C 95.200 283.449,111.558 283.600,133.629 283.600 C 175.257 283.600,172.851 283.470,173.424 285.752 C 173.568 286.328,173.847 286.800,174.043 286.800 C 174.240 286.800,174.400 287.160,174.400 287.600 C 174.400 288.040,174.566 288.400,174.768 288.400 C 174.971 288.400,175.255 288.940,175.400 289.600 C 175.545 290.260,175.829 290.800,176.032 290.800 C 176.234 290.800,176.400 291.160,176.400 291.600 C 176.400 292.040,176.566 292.400,176.768 292.400 C 176.971 292.400,177.255 292.940,177.400 293.600 C 177.545 294.260,177.829 294.800,178.032 294.800 C 178.234 294.800,178.400 295.160,178.400 295.600 C 178.400 296.040,178.566 296.400,178.768 296.400 C 178.971 296.400,179.255 296.940,179.400 297.600 C 179.545 298.260,179.829 298.800,180.032 298.800 C 180.234 298.800,180.400 299.160,180.400 299.600 C 180.400 300.040,180.566 300.400,180.768 300.400 C 180.971 300.400,181.255 300.940,181.400 301.600 C 181.545 302.260,181.829 302.800,182.032 302.800 C 182.234 302.800,182.400 303.160,182.400 303.600 C 182.400 304.040,182.566 304.400,182.768 304.400 C 182.971 304.400,183.255 304.940,183.400 305.600 C 183.545 306.260,183.829 306.800,184.032 306.800 C 184.234 306.800,184.400 307.160,184.400 307.600 C 184.400 308.040,184.566 308.400,184.768 308.400 C 184.971 308.400,185.255 308.940,185.400 309.600 C 185.545 310.260,185.829 310.800,186.032 310.800 C 186.234 310.800,186.400 311.160,186.400 311.600 C 186.400 312.040,186.566 312.400,186.768 312.400 C 186.971 312.400,187.255 312.940,187.400 313.600 C 187.545 314.260,187.829 314.800,188.032 314.800 C 188.234 314.800,188.400 315.160,188.400 315.600 C 188.400 316.040,188.566 316.400,188.768 316.400 C 188.971 316.400,189.255 316.940,189.400 317.600 C 189.545 318.260,189.829 318.800,190.032 318.800 C 190.234 318.800,190.400 319.160,190.400 319.600 C 190.400 320.040,190.566 320.400,190.768 320.400 C 190.971 320.400,191.255 320.940,191.400 321.600 C 191.545 322.260,191.829 322.800,192.032 322.800 C 192.234 322.800,192.400 323.160,192.400 323.600 C 192.400 324.040,192.566 324.400,192.768 324.400 C 192.971 324.400,193.255 324.940,193.400 325.600 C 193.545 326.260,193.829 326.800,194.032 326.800 C 194.234 326.800,194.400 327.160,194.400 327.600 C 194.400 328.040,194.566 328.400,194.768 328.400 C 194.971 328.400,195.255 328.940,195.400 329.600 C 195.545 330.260,195.829 330.800,196.032 330.800 C 196.234 330.800,196.400 331.160,196.400 331.600 C 196.400 332.040,196.566 332.400,196.768 332.400 C 196.971 332.400,197.255 332.940,197.400 333.600 C 197.545 334.260,197.829 334.800,198.032 334.800 C 198.234 334.800,198.400 335.160,198.400 335.600 C 198.400 336.040,198.566 336.400,198.768 336.400 C 198.971 336.400,199.255 336.940,199.400 337.600 C 199.545 338.260,199.829 338.800,200.032 338.800 C 200.234 338.800,200.400 339.160,200.400 339.600 C 200.400 340.040,200.560 340.400,200.757 340.400 C 200.953 340.400,201.226 340.850,201.364 341.400 C 201.502 341.950,201.792 342.400,202.008 342.400 C 202.223 342.400,202.400 342.593,202.400 342.829 C 202.400 343.831,207.624 348.454,209.011 348.679 C 209.775 348.803,210.400 349.061,210.400 349.252 C 210.400 349.444,210.670 349.600,211.000 349.600 C 211.330 349.600,211.600 349.780,211.600 350.000 C 211.600 350.264,227.400 350.400,258.200 350.400 C 289.000 350.400,304.800 350.264,304.800 350.000 C 304.800 349.780,305.250 349.600,305.800 349.600 C 306.350 349.600,306.800 349.443,306.800 349.250 C 306.800 349.058,307.336 348.793,307.991 348.662 C 309.297 348.401,314.800 343.153,314.800 342.169 C 314.800 341.856,314.980 341.600,315.200 341.600 C 315.420 341.600,315.600 341.330,315.600 341.000 C 315.600 340.670,315.760 340.400,315.955 340.400 C 316.151 340.400,316.429 339.770,316.574 339.000 C 316.718 338.230,317.008 337.600,317.218 337.600 C 317.428 337.600,317.600 337.330,317.600 337.000 C 317.600 336.670,317.760 336.400,317.955 336.400 C 318.151 336.400,318.429 335.770,318.574 335.000 C 318.718 334.230,319.008 333.600,319.218 333.600 C 319.428 333.600,319.600 333.330,319.600 333.000 C 319.600 332.670,319.760 332.400,319.955 332.400 C 320.151 332.400,320.429 331.770,320.574 331.000 C 320.718 330.230,321.008 329.600,321.218 329.600 C 321.428 329.600,321.600 329.330,321.600 329.000 C 321.600 328.670,321.760 328.400,321.955 328.400 C 322.151 328.400,322.429 327.770,322.574 327.000 C 322.718 326.230,323.008 325.600,323.218 325.600 C 323.428 325.600,323.600 325.330,323.600 325.000 C 323.600 324.670,323.760 324.400,323.955 324.400 C 324.151 324.400,324.429 323.770,324.574 323.000 C 324.718 322.230,325.008 321.600,325.218 321.600 C 325.428 321.600,325.600 321.330,325.600 321.000 C 325.600 320.670,325.760 320.400,325.955 320.400 C 326.151 320.400,326.429 319.770,326.574 319.000 C 326.718 318.230,327.008 317.600,327.218 317.600 C 327.428 317.600,327.600 317.330,327.600 317.000 C 327.600 316.670,327.760 316.400,327.955 316.400 C 328.151 316.400,328.429 315.770,328.574 315.000 C 328.718 314.230,329.008 313.600,329.218 313.600 C 329.428 313.600,329.600 313.330,329.600 313.000 C 329.600 312.670,329.760 312.400,329.955 312.400 C 330.151 312.400,330.429 311.770,330.574 311.000 C 330.718 310.230,331.008 309.600,331.218 309.600 C 331.428 309.600,331.600 309.330,331.600 309.000 C 331.600 308.670,331.760 308.400,331.955 308.400 C 332.151 308.400,332.429 307.770,332.574 307.000 C 332.718 306.230,333.008 305.600,333.218 305.600 C 333.428 305.600,333.600 305.330,333.600 305.000 C 333.600 304.670,333.760 304.400,333.955 304.400 C 334.151 304.400,334.429 303.770,334.574 303.000 C 334.718 302.230,335.008 301.600,335.218 301.600 C 335.428 301.600,335.600 301.330,335.600 301.000 C 335.600 300.670,335.760 300.400,335.955 300.400 C 336.151 300.400,336.429 299.770,336.574 299.000 C 336.718 298.230,337.008 297.600,337.218 297.600 C 337.428 297.600,337.600 297.330,337.600 297.000 C 337.600 296.670,337.760 296.400,337.955 296.400 C 338.151 296.400,338.429 295.770,338.574 295.000 C 338.718 294.230,339.008 293.600,339.218 293.600 C 339.428 293.600,339.600 293.330,339.600 293.000 C 339.600 292.670,339.760 292.400,339.955 292.400 C 340.151 292.400,340.429 291.770,340.574 291.000 C 340.718 290.230,341.008 289.600,341.218 289.600 C 341.428 289.600,341.600 289.330,341.600 289.000 C 341.600 288.670,341.760 288.400,341.955 288.400 C 342.151 288.400,342.429 287.770,342.574 287.000 C 342.718 286.230,343.008 285.600,343.218 285.600 C 343.428 285.600,343.600 285.330,343.600 285.000 C 343.600 284.670,343.760 284.400,343.955 284.400 C 344.151 284.400,344.429 283.770,344.574 283.000 C 344.718 282.230,345.008 281.600,345.218 281.600 C 345.428 281.600,345.600 281.330,345.600 281.000 C 345.600 280.670,345.760 280.400,345.955 280.400 C 346.151 280.400,346.429 279.770,346.574 279.000 C 346.718 278.230,347.008 277.600,347.218 277.600 C 347.428 277.600,347.600 277.330,347.600 277.000 C 347.600 276.670,347.760 276.400,347.955 276.400 C 348.151 276.400,348.429 275.770,348.574 275.000 C 348.718 274.230,349.008 273.600,349.218 273.600 C 349.428 273.600,349.600 273.161,349.600 272.624 C 349.600 272.087,349.780 271.536,350.000 271.400 C 350.528 271.074,350.528 262.126,350.000 261.800 C 349.780 261.664,349.600 261.113,349.600 260.576 C 349.600 260.039,349.434 259.600,349.232 259.600 C 349.029 259.600,348.745 259.060,348.600 258.400 C 348.455 257.740,348.171 257.200,347.968 257.200 C 347.766 257.200,347.600 256.840,347.600 256.400 C 347.600 255.960,347.434 255.600,347.232 255.600 C 347.029 255.600,346.745 255.060,346.600 254.400 C 346.455 253.740,346.171 253.200,345.968 253.200 C 345.766 253.200,345.600 252.840,345.600 252.400 C 345.600 251.960,345.434 251.600,345.232 251.600 C 345.029 251.600,344.745 251.060,344.600 250.400 C 344.455 249.740,344.171 249.200,343.968 249.200 C 343.766 249.200,343.600 248.840,343.600 248.400 C 343.600 247.960,343.434 247.600,343.232 247.600 C 343.029 247.600,342.745 247.060,342.600 246.400 C 342.455 245.740,342.171 245.200,341.968 245.200 C 341.766 245.200,341.600 244.840,341.600 244.400 C 341.600 243.960,341.434 243.600,341.232 243.600 C 341.029 243.600,340.745 243.060,340.600 242.400 C 340.455 241.740,340.171 241.200,339.968 241.200 C 339.766 241.200,339.600 240.840,339.600 240.400 C 339.600 239.960,339.434 239.600,339.232 239.600 C 339.029 239.600,338.745 239.060,338.600 238.400 C 338.455 237.740,338.171 237.200,337.968 237.200 C 337.766 237.200,337.600 236.840,337.600 236.400 C 337.600 235.960,337.434 235.600,337.232 235.600 C 337.029 235.600,336.745 235.060,336.600 234.400 C 336.455 233.740,336.171 233.200,335.968 233.200 C 335.766 233.200,335.600 232.840,335.600 232.400 C 335.600 231.960,335.434 231.600,335.232 231.600 C 335.029 231.600,334.745 231.060,334.600 230.400 C 334.455 229.740,334.171 229.200,333.968 229.200 C 333.766 229.200,333.600 228.840,333.600 228.400 C 333.600 227.960,333.434 227.600,333.232 227.600 C 333.029 227.600,332.745 227.060,332.600 226.400 C 332.455 225.740,332.171 225.200,331.968 225.200 C 331.766 225.200,331.600 224.840,331.600 224.400 C 331.600 223.960,331.434 223.600,331.232 223.600 C 331.029 223.600,330.745 223.060,330.600 222.400 C 330.455 221.740,330.171 221.200,329.968 221.200 C 329.766 221.200,329.600 220.840,329.600 220.400 C 329.600 219.960,329.434 219.600,329.232 219.600 C 329.029 219.600,328.745 219.060,328.600 218.400 C 328.455 217.740,328.171 217.200,327.968 217.200 C 327.766 217.200,327.600 216.840,327.600 216.400 C 327.600 215.960,327.434 215.600,327.232 215.600 C 327.029 215.600,326.745 215.060,326.600 214.400 C 326.455 213.740,326.171 213.200,325.968 213.200 C 325.766 213.200,325.600 212.840,325.600 212.400 C 325.600 211.960,325.434 211.600,325.232 211.600 C 325.029 211.600,324.745 211.060,324.600 210.400 C 324.455 209.740,324.171 209.200,323.968 209.200 C 323.766 209.200,323.600 208.840,323.600 208.400 C 323.600 207.960,323.434 207.600,323.232 207.600 C 323.029 207.600,322.745 207.060,322.600 206.400 C 322.455 205.740,322.171 205.200,321.968 205.200 C 321.766 205.200,321.600 204.840,321.600 204.400 C 321.600 203.960,321.434 203.600,321.232 203.600 C 321.029 203.600,320.745 203.060,320.600 202.400 C 320.455 201.740,320.171 201.200,319.968 201.200 C 319.766 201.200,319.600 200.660,319.600 200.000 C 319.600 199.340,319.766 198.800,319.968 198.800 C 320.171 198.800,320.455 198.260,320.600 197.600 C 320.745 196.940,321.029 196.400,321.232 196.400 C 321.434 196.400,321.600 196.040,321.600 195.600 C 321.600 195.160,321.766 194.800,321.968 194.800 C 322.171 194.800,322.455 194.260,322.600 193.600 C 322.745 192.940,323.029 192.400,323.232 192.400 C 323.434 192.400,323.600 192.040,323.600 191.600 C 323.600 191.160,323.766 190.800,323.968 190.800 C 324.171 190.800,324.455 190.260,324.600 189.600 C 324.745 188.940,325.029 188.400,325.232 188.400 C 325.434 188.400,325.600 188.040,325.600 187.600 C 325.600 187.160,325.766 186.800,325.968 186.800 C 326.171 186.800,326.455 186.260,326.600 185.600 C 326.745 184.940,327.029 184.400,327.232 184.400 C 327.434 184.400,327.600 184.040,327.600 183.600 C 327.600 183.160,327.766 182.800,327.968 182.800 C 328.171 182.800,328.455 182.260,328.600 181.600 C 328.745 180.940,329.029 180.400,329.232 180.400 C 329.434 180.400,329.600 180.040,329.600 179.600 C 329.600 179.160,329.766 178.800,329.968 178.800 C 330.171 178.800,330.455 178.260,330.600 177.600 C 330.745 176.940,331.029 176.400,331.232 176.400 C 331.434 176.400,331.600 176.040,331.600 175.600 C 331.600 175.160,331.766 174.800,331.968 174.800 C 332.171 174.800,332.455 174.260,332.600 173.600 C 332.745 172.940,333.029 172.400,333.232 172.400 C 333.434 172.400,333.600 172.040,333.600 171.600 C 333.600 171.160,333.766 170.800,333.968 170.800 C 334.171 170.800,334.455 170.260,334.600 169.600 C 334.745 168.940,335.029 168.400,335.232 168.400 C 335.434 168.400,335.600 168.040,335.600 167.600 C 335.600 167.160,335.766 166.800,335.968 166.800 C 336.171 166.800,336.455 166.260,336.600 165.600 C 336.745 164.940,337.029 164.400,337.232 164.400 C 337.434 164.400,337.600 164.040,337.600 163.600 C 337.600 163.160,337.766 162.800,337.968 162.800 C 338.171 162.800,338.455 162.260,338.600 161.600 C 338.745 160.940,339.029 160.400,339.232 160.400 C 339.434 160.400,339.600 160.040,339.600 159.600 C 339.600 159.160,339.766 158.800,339.968 158.800 C 340.171 158.800,340.455 158.260,340.600 157.600 C 340.745 156.940,341.029 156.400,341.232 156.400 C 341.434 156.400,341.600 156.040,341.600 155.600 C 341.600 155.160,341.766 154.800,341.968 154.800 C 342.171 154.800,342.455 154.260,342.600 153.600 C 342.745 152.940,343.029 152.400,343.232 152.400 C 343.434 152.400,343.600 152.040,343.600 151.600 C 343.600 151.160,343.766 150.800,343.968 150.800 C 344.171 150.800,344.455 150.260,344.600 149.600 C 344.745 148.940,345.029 148.400,345.232 148.400 C 345.434 148.400,345.600 148.040,345.600 147.600 C 345.600 147.160,345.766 146.800,345.968 146.800 C 346.171 146.800,346.455 146.260,346.600 145.600 C 346.745 144.940,347.029 144.400,347.232 144.400 C 347.434 144.400,347.600 144.040,347.600 143.600 C 347.600 143.160,347.778 142.800,347.995 142.800 C 348.213 142.800,348.506 142.080,348.646 141.200 C 348.787 140.320,349.059 139.600,349.251 139.600 C 349.443 139.600,349.600 139.150,349.600 138.600 C 349.600 138.050,349.780 137.600,350.000 137.600 C 350.242 137.600,350.400 135.875,350.400 133.224 C 350.400 130.737,350.227 128.740,350.000 128.600 C 349.780 128.464,349.600 127.913,349.600 127.376 C 349.600 126.839,349.428 126.400,349.218 126.400 C 349.008 126.400,348.718 125.770,348.574 125.000 C 348.429 124.230,348.151 123.600,347.955 123.600 C 347.760 123.600,347.600 123.330,347.600 123.000 C 347.600 122.670,347.428 122.400,347.218 122.400 C 347.008 122.400,346.718 121.770,346.574 121.000 C 346.429 120.230,346.151 119.600,345.955 119.600 C 345.760 119.600,345.600 119.330,345.600 119.000 C 345.600 118.670,345.428 118.400,345.218 118.400 C 345.008 118.400,344.718 117.770,344.574 117.000 C 344.429 116.230,344.151 115.600,343.955 115.600 C 343.760 115.600,343.600 115.330,343.600 115.000 C 343.600 114.670,343.428 114.400,343.218 114.400 C 343.008 114.400,342.718 113.770,342.574 113.000 C 342.429 112.230,342.151 111.600,341.955 111.600 C 341.760 111.600,341.600 111.330,341.600 111.000 C 341.600 110.670,341.428 110.400,341.218 110.400 C 341.008 110.400,340.718 109.770,340.574 109.000 C 340.429 108.230,340.151 107.600,339.955 107.600 C 339.760 107.600,339.600 107.330,339.600 107.000 C 339.600 106.670,339.428 106.400,339.218 106.400 C 339.008 106.400,338.718 105.770,338.574 105.000 C 338.429 104.230,338.151 103.600,337.955 103.600 C 337.760 103.600,337.600 103.330,337.600 103.000 C 337.600 102.670,337.428 102.400,337.218 102.400 C 337.008 102.400,336.718 101.770,336.574 101.000 C 336.429 100.230,336.151 99.600,335.955 99.600 C 335.760 99.600,335.600 99.330,335.600 99.000 C 335.600 98.670,335.428 98.400,335.218 98.400 C 335.008 98.400,334.718 97.770,334.574 97.000 C 334.429 96.230,334.151 95.600,333.955 95.600 C 333.760 95.600,333.600 95.330,333.600 95.000 C 333.600 94.670,333.428 94.400,333.218 94.400 C 333.008 94.400,332.718 93.770,332.574 93.000 C 332.429 92.230,332.151 91.600,331.955 91.600 C 331.760 91.600,331.600 91.330,331.600 91.000 C 331.600 90.670,331.428 90.400,331.218 90.400 C 331.008 90.400,330.718 89.770,330.574 89.000 C 330.429 88.230,330.151 87.600,329.955 87.600 C 329.760 87.600,329.600 87.330,329.600 87.000 C 329.600 86.670,329.428 86.400,329.218 86.400 C 329.008 86.400,328.718 85.770,328.574 85.000 C 328.429 84.230,328.151 83.600,327.955 83.600 C 327.760 83.600,327.600 83.330,327.600 83.000 C 327.600 82.670,327.428 82.400,327.218 82.400 C 327.008 82.400,326.718 81.770,326.574 81.000 C 326.429 80.230,326.151 79.600,325.955 79.600 C 325.760 79.600,325.600 79.330,325.600 79.000 C 325.600 78.670,325.428 78.400,325.218 78.400 C 325.008 78.400,324.718 77.770,324.574 77.000 C 324.429 76.230,324.151 75.600,323.955 75.600 C 323.760 75.600,323.600 75.330,323.600 75.000 C 323.600 74.670,323.428 74.400,323.218 74.400 C 323.008 74.400,322.718 73.770,322.574 73.000 C 322.429 72.230,322.151 71.600,321.955 71.600 C 321.760 71.600,321.600 71.330,321.600 71.000 C 321.600 70.670,321.428 70.400,321.218 70.400 C 321.008 70.400,320.718 69.770,320.574 69.000 C 320.429 68.230,320.151 67.600,319.955 67.600 C 319.760 67.600,319.600 67.330,319.600 67.000 C 319.600 66.670,319.428 66.400,319.218 66.400 C 319.008 66.400,318.718 65.770,318.574 65.000 C 318.429 64.230,318.151 63.600,317.955 63.600 C 317.760 63.600,317.600 63.330,317.600 63.000 C 317.600 62.670,317.428 62.400,317.218 62.400 C 317.008 62.400,316.718 61.770,316.574 61.000 C 316.429 60.230,316.151 59.600,315.955 59.600 C 315.760 59.600,315.600 59.330,315.600 59.000 C 315.600 58.670,315.432 58.400,315.227 58.400 C 315.022 58.400,314.736 58.027,314.591 57.571 C 314.093 56.003,309.237 51.556,307.761 51.316 C 307.013 51.195,306.400 50.939,306.400 50.748 C 306.400 50.556,306.040 50.400,305.600 50.400 C 305.160 50.400,304.800 50.220,304.800 50.000 C 304.800 49.736,289.000 49.600,258.200 49.600 C 227.400 49.600,211.600 49.736,211.600 50.000 M302.409 108.257 L 314.938 133.314 302.371 158.457 L 289.805 183.600 258.320 183.600 L 226.835 183.600 214.418 158.758 C 207.588 145.095,202.000 133.653,202.000 133.331 C 202.000 133.010,207.593 121.599,214.429 107.973 L 226.859 83.200 258.370 83.200 L 289.881 83.200 302.409 108.257 M185.700 174.742 C 192.465 188.329,198.000 199.695,198.000 200.000 C 198.000 200.305,192.465 211.671,185.700 225.258 L 173.400 249.961 141.720 249.981 L 110.041 250.000 97.539 225.000 L 85.038 200.000 97.539 175.000 L 110.041 150.000 141.720 150.019 L 173.400 150.039 185.700 174.742 M302.379 241.234 C 309.210 254.893,314.794 266.368,314.787 266.734 C 314.779 267.100,309.230 278.470,302.456 292.000 L 290.139 316.600 258.369 316.696 L 226.600 316.793 214.092 291.739 L 201.583 266.686 213.483 242.843 C 220.028 229.729,225.719 218.415,226.131 217.700 L 226.879 216.400 258.418 216.400 L 289.957 216.400 302.379 241.234 " stroke="none" fill="transparent" fill-rule="evenodd"></path></g></svg>